<svg width="40" height="40" fill="none" xmlns="http://www.w3.org/2000/svg"><g clip-path="url(#a)"><path d="M39.983 13.685a1.658 1.658 0 0 0-.11-.372c-.01-.026-.01-.053-.023-.079a.031.031 0 0 1-.004-.006c0-.003-.002-.004-.003-.006L35.42 3.829c-.01-.022-.029-.041-.04-.063-.016-.026-.021-.059-.038-.085-.034-.057-.08-.101-.12-.152-.04-.053-.077-.11-.121-.156a1.707 1.707 0 0 0-.219-.185c-.048-.038-.094-.08-.147-.11a1.694 1.694 0 0 0-.284-.13c-.05-.018-.097-.047-.148-.061a1.745 1.745 0 0 0-.475-.068H7.757c-.155 0-.305.022-.451.06-.051.013-.098.04-.148.057-.09.034-.181.063-.265.111-.054.031-.098.072-.148.106-.072.051-.146.1-.21.162-.045.044-.08.096-.12.146-.048.056-.104.106-.142.169L.265 13.023c-.022.037-.033.078-.053.117-.017.03-.046.057-.06.09-.016.036-.017.073-.032.107a2.01 2.01 0 0 0-.114.47 1.818 1.818 0 0 0-.003.265c.006.072.01.144.022.214.016.086.043.167.07.25.026.072.048.142.081.21.011.022.016.048.027.072.032.059.078.105.117.158.03.045.05.094.084.135l18.158 21.446c.313.37.782.632 1.25.619.006 0 .012.003.016.003l.078.001h.003c.157 0 .311-.029.46-.069.043-.013.083-.027.127-.044.11-.04.216-.09.317-.15.033-.02.07-.04.102-.061.12-.083.232-.179.329-.294l18.344-21.446c.023-.028.037-.061.057-.09.03-.038.066-.069.091-.11.027-.042.04-.088.062-.133.03-.057.06-.114.083-.175.034-.09.058-.18.078-.272.013-.061.028-.12.034-.181.011-.102.007-.2 0-.3-.005-.06-.002-.115-.01-.17Z" fill="#fff"/></g><defs><clipPath id="a"><path d="M0 0h40v40H0z"/></clipPath></defs></svg>