<?xml version="1.0" encoding="UTF-8"?>
<svg version="1.1" xmlns="http://www.w3.org/2000/svg"   width="21" height="21">
<path d="M0 0 C0.7734375 -0.00773438 1.546875 -0.01546875 2.34375 -0.0234375 C5.04583262 0.47586038 5.92075936 1.14022551 7.5 3.375 C7.8984375 5.53125 7.8984375 5.53125 7.875 7.875 C7.88273438 8.6484375 7.89046875 9.421875 7.8984375 10.21875 C7.39913962 12.92083262 6.73477449 13.79575936 4.5 15.375 C2.34375 15.7734375 2.34375 15.7734375 0 15.75 C-0.7734375 15.75773437 -1.546875 15.76546875 -2.34375 15.7734375 C-5.04583262 15.27413962 -5.92075936 14.60977449 -7.5 12.375 C-7.8984375 10.21875 -7.8984375 10.21875 -7.875 7.875 C-7.88273438 7.1015625 -7.89046875 6.328125 -7.8984375 5.53125 C-7.04925027 0.93564854 -4.36327591 -0.04363276 0 0 Z " fill="#0d0d0c"  transform="translate(7.5,0.625)"/>
<path d="M0 0 C1.98 0 3.96 0 6 0 C6 1.98 6 3.96 6 6 C4.02 6 2.04 6 0 6 C0 4.02 0 2.04 0 0 Z " fill="#0d0d0c"  transform="translate(14,14)"/>
</svg>
