<svg width="40" height="40" xmlns="http://www.w3.org/2000/svg"><path d="M20.05 40c-.63 0-1.163-.457-1.316-1.069-.487-1.95-1.42-4.025-2.797-6.223-1.631-2.639-3.958-5.086-6.979-7.343-2.627-1.986-5.254-3.34-7.882-4.063C.454 21.132 0 20.58 0 19.934c0-.633.437-1.178 1.045-1.352 2.576-.735 5.057-1.93 7.445-3.582 2.743-1.91 5.034-4.201 6.875-6.875 1.628-2.382 2.745-4.737 3.352-7.067.16-.61.697-1.058 1.327-1.058.638 0 1.179.458 1.334 1.077.35 1.396.898 2.825 1.643 4.288.937 1.805 2.135 3.541 3.594 5.208a32.111 32.111 0 0 0 5 4.427c2.404 1.705 4.849 2.902 7.334 3.593.61.17 1.051.712 1.051 1.345 0 .642-.455 1.189-1.074 1.359-1.575.431-3.196 1.128-4.863 2.088a31.323 31.323 0 0 0-5.626 4.22c-1.736 1.596-3.16 3.28-4.27 5.051-1.38 2.203-2.314 4.293-2.8 6.272-.15.614-.684 1.072-1.316 1.072Z"/></svg>